<svg width="24" height="48" viewBox="0 0 24 48" fill="none" xmlns="http://www.w3.org/2000/svg">
<g filter="url(#filter0_d_1775_2480)">
<path d="M3.70711 14.707L8.2929 19.2928C8.68342 19.6833 9.31658 19.6833 9.70711 19.2928L20.2929 8.70711C20.6834 8.31658 20.6834 7.68342 20.2929 7.29289L18.7071 5.7071C18.3166 5.31658 17.6834 5.31658 17.2929 5.7071L9.70711 13.2928C9.31658 13.6833 8.68342 13.6833 8.2929 13.2928L6.70711 11.707C6.31658 11.3165 5.68342 11.3165 5.29289 11.707L3.70711 13.2928C3.31658 13.6833 3.31658 14.3165 3.70711 14.707Z" fill="white"/>
</g>
<g filter="url(#filter1_d_1775_2480)">
<circle cx="12" cy="36" r="6" fill="white"/>
</g>
<defs>
<filter id="filter0_d_1775_2480" x="2.41418" y="5.41431" width="19.1716" height="17.1714" filterUnits="userSpaceOnUse" color-interpolation-filters="sRGB">
<feFlood flood-opacity="0" result="BackgroundImageFix"/>
<feColorMatrix in="SourceAlpha" type="matrix" values="0 0 0 0 0 0 0 0 0 0 0 0 0 0 0 0 0 0 127 0" result="hardAlpha"/>
<feOffset dy="2"/>
<feGaussianBlur stdDeviation="0.5"/>
<feColorMatrix type="matrix" values="0 0 0 0 0.396078 0 0 0 0 0.619608 0 0 0 0 0.341176 0 0 0 0.5 0"/>
<feBlend mode="normal" in2="BackgroundImageFix" result="effect1_dropShadow_1775_2480"/>
<feBlend mode="normal" in="SourceGraphic" in2="effect1_dropShadow_1775_2480" result="shape"/>
</filter>
<filter id="filter1_d_1775_2480" x="5" y="30" width="14" height="15" filterUnits="userSpaceOnUse" color-interpolation-filters="sRGB">
<feFlood flood-opacity="0" result="BackgroundImageFix"/>
<feColorMatrix in="SourceAlpha" type="matrix" values="0 0 0 0 0 0 0 0 0 0 0 0 0 0 0 0 0 0 127 0" result="hardAlpha"/>
<feOffset dy="2"/>
<feGaussianBlur stdDeviation="0.5"/>
<feColorMatrix type="matrix" values="0 0 0 0 0.396078 0 0 0 0 0.619608 0 0 0 0 0.341176 0 0 0 0.5 0"/>
<feBlend mode="normal" in2="BackgroundImageFix" result="effect1_dropShadow_1775_2480"/>
<feBlend mode="normal" in="SourceGraphic" in2="effect1_dropShadow_1775_2480" result="shape"/>
</filter>
</defs>
</svg>
