<svg width="24" height="60" viewBox="0 0 24 60" fill="none" xmlns="http://www.w3.org/2000/svg">
<g clip-path="url(#clip0_2299_460)">
<path fill-rule="evenodd" clip-rule="evenodd" d="M1.29303 7.29296C1.48056 7.10549 1.73487 7.00017 2.00003 7.00017C2.26519 7.00017 2.5195 7.10549 2.70703 7.29296L6.00003 10.586L9.29303 7.29296C9.38528 7.19745 9.49562 7.12127 9.61763 7.06886C9.73963 7.01645 9.87085 6.98886 10.0036 6.98771C10.1364 6.98655 10.2681 7.01186 10.391 7.06214C10.5139 7.11242 10.6255 7.18667 10.7194 7.28056C10.8133 7.37446 10.8876 7.48611 10.9379 7.60901C10.9881 7.7319 11.0134 7.86358 11.0123 7.99636C11.0111 8.12914 10.9835 8.26036 10.9311 8.38236C10.8787 8.50437 10.8025 8.61471 10.707 8.70696L6.70703 12.707C6.5195 12.8944 6.26519 12.9997 6.00003 12.9997C5.73487 12.9997 5.48056 12.8944 5.29303 12.707L1.29303 8.70696C1.10556 8.51943 1.00024 8.26512 1.00024 7.99996C1.00024 7.73479 1.10556 7.48049 1.29303 7.29296Z" fill="#494949"/>
<path fill-rule="evenodd" clip-rule="evenodd" d="M1.29303 27.293C1.48056 27.1055 1.73487 27.0002 2.00003 27.0002C2.26519 27.0002 2.5195 27.1055 2.70703 27.293L6.00003 30.586L9.29303 27.293C9.38528 27.1974 9.49562 27.1213 9.61763 27.0689C9.73963 27.0164 9.87085 26.9889 10.0036 26.9877C10.1364 26.9866 10.2681 27.0119 10.391 27.0621C10.5139 27.1124 10.6255 27.1867 10.7194 27.2806C10.8133 27.3745 10.8876 27.4861 10.9379 27.609C10.9881 27.7319 11.0134 27.8636 11.0123 27.9964C11.0111 28.1291 10.9835 28.2604 10.9311 28.3824C10.8787 28.5044 10.8025 28.6147 10.707 28.707L6.70703 32.707C6.5195 32.8944 6.26519 32.9997 6.00003 32.9997C5.73487 32.9997 5.48056 32.8944 5.29303 32.707L1.29303 28.707C1.10556 28.5194 1.00024 28.2651 1.00024 28C1.00024 27.7348 1.10556 27.4805 1.29303 27.293Z" fill="#494949"/>
<g filter="url(#filter0_d_2299_460)">
<path fill-rule="evenodd" clip-rule="evenodd" d="M1.29303 47.293C1.48056 47.1055 1.73487 47.0002 2.00003 47.0002C2.26519 47.0002 2.5195 47.1055 2.70703 47.293L6.00003 50.586L9.29303 47.293C9.38528 47.1974 9.49562 47.1213 9.61763 47.0689C9.73963 47.0164 9.87085 46.9889 10.0036 46.9877C10.1364 46.9866 10.2681 47.0119 10.391 47.0621C10.5139 47.1124 10.6255 47.1867 10.7194 47.2806C10.8133 47.3745 10.8876 47.4861 10.9379 47.609C10.9881 47.7319 11.0134 47.8636 11.0123 47.9964C11.0111 48.1291 10.9835 48.2604 10.9311 48.3824C10.8787 48.5044 10.8025 48.6147 10.707 48.707L6.70703 52.707C6.5195 52.8944 6.26519 52.9997 6.00003 52.9997C5.73487 52.9997 5.48056 52.8944 5.29303 52.707L1.29303 48.707C1.10556 48.5194 1.00024 48.2651 1.00024 48C1.00024 47.7348 1.10556 47.4805 1.29303 47.293Z" fill="#494949"/>
</g>
<path fill-rule="evenodd" clip-rule="evenodd" d="M13.293 7.29296C13.4806 7.10549 13.7349 7.00017 14 7.00017C14.2652 7.00017 14.5195 7.10549 14.707 7.29296L18 10.586L21.293 7.29296C21.3853 7.19745 21.4956 7.12127 21.6176 7.06886C21.7396 7.01645 21.8709 6.98886 22.0036 6.98771C22.1364 6.98655 22.2681 7.01186 22.391 7.06214C22.5139 7.11242 22.6255 7.18667 22.7194 7.28056C22.8133 7.37446 22.8876 7.48611 22.9379 7.60901C22.9881 7.7319 23.0134 7.86358 23.0123 7.99636C23.0111 8.12914 22.9835 8.26036 22.9311 8.38236C22.8787 8.50437 22.8025 8.61471 22.707 8.70696L18.707 12.707C18.5195 12.8944 18.2652 12.9997 18 12.9997C17.7349 12.9997 17.4806 12.8944 17.293 12.707L13.293 8.70696C13.1056 8.51943 13.0002 8.26512 13.0002 7.99996C13.0002 7.73479 13.1056 7.48049 13.293 7.29296Z" fill="white"/>
<g filter="url(#filter1_d_2299_460)">
<path fill-rule="evenodd" clip-rule="evenodd" d="M13.293 27.293C13.4806 27.1055 13.7349 27.0002 14 27.0002C14.2652 27.0002 14.5195 27.1055 14.707 27.293L18 30.586L21.293 27.293C21.3853 27.1974 21.4956 27.1213 21.6176 27.0689C21.7396 27.0164 21.8709 26.9889 22.0036 26.9877C22.1364 26.9866 22.2681 27.0119 22.391 27.0621C22.5139 27.1124 22.6255 27.1867 22.7194 27.2806C22.8133 27.3745 22.8876 27.4861 22.9379 27.609C22.9881 27.7319 23.0134 27.8636 23.0123 27.9964C23.0111 28.1291 22.9835 28.2604 22.9311 28.3824C22.8787 28.5044 22.8025 28.6147 22.707 28.707L18.707 32.707C18.5195 32.8944 18.2652 32.9997 18 32.9997C17.7349 32.9997 17.4806 32.8944 17.293 32.707L13.293 28.707C13.1056 28.5194 13.0002 28.2651 13.0002 28C13.0002 27.7348 13.1056 27.4805 13.293 27.293Z" fill="white"/>
</g>
<g filter="url(#filter2_d_2299_460)">
<path fill-rule="evenodd" clip-rule="evenodd" d="M13.293 47.293C13.4806 47.1055 13.7349 47.0002 14 47.0002C14.2652 47.0002 14.5195 47.1055 14.707 47.293L18 50.586L21.293 47.293C21.3853 47.1974 21.4956 47.1213 21.6176 47.0689C21.7396 47.0164 21.8709 46.9889 22.0036 46.9877C22.1364 46.9866 22.2681 47.0119 22.391 47.0621C22.5139 47.1124 22.6255 47.1867 22.7194 47.2806C22.8133 47.3745 22.8876 47.4861 22.9379 47.609C22.9881 47.7319 23.0134 47.8636 23.0123 47.9964C23.0111 48.1291 22.9835 48.2604 22.9311 48.3824C22.8787 48.5044 22.8025 48.6147 22.707 48.707L18.707 52.707C18.5195 52.8944 18.2652 52.9997 18 52.9997C17.7349 52.9997 17.4806 52.8944 17.293 52.707L13.293 48.707C13.1056 48.5194 13.0002 48.2651 13.0002 48C13.0002 47.7348 13.1056 47.4805 13.293 47.293Z" fill="white"/>
</g>
</g>
<defs>
<filter id="filter0_d_2299_460" x="0" y="39" width="12" height="21" filterUnits="userSpaceOnUse" color-interpolation-filters="sRGB">
<feFlood flood-opacity="0" result="BackgroundImageFix"/>
<feColorMatrix in="SourceAlpha" type="matrix" values="0 0 0 0 0 0 0 0 0 0 0 0 0 0 0 0 0 0 127 0" result="hardAlpha"/>
<feOffset dy="-1"/>
<feColorMatrix type="matrix" values="0 0 0 0 1 0 0 0 0 1 0 0 0 0 1 0 0 0 0.85 0"/>
<feBlend mode="normal" in2="BackgroundImageFix" result="effect1_dropShadow_2299_460"/>
<feBlend mode="normal" in="SourceGraphic" in2="effect1_dropShadow_2299_460" result="shape"/>
</filter>
<filter id="filter1_d_2299_460" x="10" y="19" width="16" height="24" filterUnits="userSpaceOnUse" color-interpolation-filters="sRGB">
<feFlood flood-opacity="0" result="BackgroundImageFix"/>
<feColorMatrix in="SourceAlpha" type="matrix" values="0 0 0 0 0 0 0 0 0 0 0 0 0 0 0 0 0 0 127 0" result="hardAlpha"/>
<feOffset dy="1"/>
<feGaussianBlur stdDeviation="1"/>
<feColorMatrix type="matrix" values="0 0 0 0 0 0 0 0 0 0 0 0 0 0 0 0 0 0 0.25 0"/>
<feBlend mode="normal" in2="BackgroundImageFix" result="effect1_dropShadow_2299_460"/>
<feBlend mode="normal" in="SourceGraphic" in2="effect1_dropShadow_2299_460" result="shape"/>
</filter>
<filter id="filter2_d_2299_460" x="11" y="38" width="14" height="22" filterUnits="userSpaceOnUse" color-interpolation-filters="sRGB">
<feFlood flood-opacity="0" result="BackgroundImageFix"/>
<feColorMatrix in="SourceAlpha" type="matrix" values="0 0 0 0 0 0 0 0 0 0 0 0 0 0 0 0 0 0 127 0" result="hardAlpha"/>
<feOffset dy="-1"/>
<feGaussianBlur stdDeviation="0.5"/>
<feColorMatrix type="matrix" values="0 0 0 0 0 0 0 0 0 0 0 0 0 0 0 0 0 0 0.35 0"/>
<feBlend mode="normal" in2="BackgroundImageFix" result="effect1_dropShadow_2299_460"/>
<feBlend mode="normal" in="SourceGraphic" in2="effect1_dropShadow_2299_460" result="shape"/>
</filter>
<clipPath id="clip0_2299_460">
<rect width="24" height="60" fill="white"/>
</clipPath>
</defs>
</svg>
