<svg width="48" height="24" viewBox="0 0 48 24" fill="none" xmlns="http://www.w3.org/2000/svg">
<g clip-path="url(#clip0_2476_171)">
<path d="M12 15V17M6 21H18C18.5304 21 19.0391 20.7893 19.4142 20.4142C19.7893 20.0391 20 19.5304 20 19V13C20 12.4696 19.7893 11.9609 19.4142 11.5858C19.0391 11.2107 18.5304 11 18 11H6C5.46957 11 4.96086 11.2107 4.58579 11.5858C4.21071 11.9609 4 12.4696 4 13V19C4 19.5304 4.21071 20.0391 4.58579 20.4142C4.96086 20.7893 5.46957 21 6 21ZM16 11V7C16 5.93913 15.5786 4.92172 14.8284 4.17157C14.0783 3.42143 13.0609 3 12 3C10.9391 3 9.92172 3.42143 9.17157 4.17157C8.42143 4.92172 8 5.93913 8 7V11H16Z" stroke="#ABABAB" stroke-width="2" stroke-linecap="round" stroke-linejoin="round"/>
<path d="M36 15V17M30 21H42C42.5304 21 43.0391 20.7893 43.4142 20.4142C43.7893 20.0391 44 19.5304 44 19V13C44 12.4696 43.7893 11.9609 43.4142 11.5858C43.0391 11.2107 42.5304 11 42 11H30C29.4696 11 28.9609 11.2107 28.5858 11.5858C28.2107 11.9609 28 12.4696 28 13V19C28 19.5304 28.2107 20.0391 28.5858 20.4142C28.9609 20.7893 29.4696 21 30 21ZM40 11V7C40 5.93913 39.5786 4.92172 38.8284 4.17157C38.0783 3.42143 37.0609 3 36 3C34.9391 3 33.9217 3.42143 33.1716 4.17157C32.4214 4.92172 32 5.93913 32 7V11H40Z" stroke="#6D6D6D" stroke-width="2" stroke-linecap="round" stroke-linejoin="round"/>
</g>
<defs>
<clipPath id="clip0_2476_171">
<rect width="48" height="24" fill="white"/>
</clipPath>
</defs>
</svg>
